HIERARCHY
ROOT root
{
	OFFSET	0	13.1	24.9
	CHANNELS 6  Xposition Yposition Zposition Xrotation Yrotation Zrotation
	JOINT spine_1
	{
		OFFSET	0	9.99999	0
		CHANNELS 3  Xrotation Yrotation Zrotation
		JOINT spine_2
		{
			OFFSET	0	112	-10
			CHANNELS 3  Xrotation Yrotation Zrotation
			JOINT spine_3
			{
				OFFSET	0	206.5	19.3
				CHANNELS 3  Xrotation Yrotation Zrotation
				JOINT spine_4
				{
					OFFSET	0	110.4	14.6
					CHANNELS 3  Xrotation Yrotation Zrotation
					JOINT neck_1
					{
						OFFSET	0	71.8	-50.3
						CHANNELS 3  Xrotation Yrotation Zrotation
						JOINT neck_2
						{
							OFFSET	0	86.2	-25.8
							CHANNELS 3  Xrotation Yrotation Zrotation
							JOINT head_ee
							{
								OFFSET	0	179.8	-8.7
								CHANNELS 3  Xrotation Yrotation Zrotation
								End Site
								{
									OFFSET	1	0	0
								}
							}
						}
					}
					JOINT left_clavicle
					{
						OFFSET	-43.2	22.4	-70.8
						CHANNELS 3  Xrotation Yrotation Zrotation
						JOINT left_shoulder
						{
							OFFSET	-93.9	-5.79999	48.7
							CHANNELS 3  Xrotation Yrotation Zrotation
							JOINT left_elbow
							{
								OFFSET	-291.4	-30.8	15.2
								CHANNELS 3  Xrotation Yrotation Zrotation
								JOINT left_lowarm_twist
								{
									OFFSET	-110.7	-3.89999	13.6
									CHANNELS 3  Xrotation Yrotation Zrotation
									JOINT left_hand
									{
										OFFSET	-110.7	-3.89999	13.6
										CHANNELS 3  Xrotation Yrotation Zrotation
										JOINT left_ee
										{
											OFFSET	-80.8	-5.10001	12.1
											CHANNELS 3  Xrotation Yrotation Zrotation
											End Site
											{
												OFFSET	1	0	0
											}
										}
									}
								}
							}
						}
					}
					JOINT right_clavicle
					{
						OFFSET	43.2	22.4	-70.8
						CHANNELS 3  Xrotation Yrotation Zrotation
						JOINT right_shoulder
						{
							OFFSET	93.9	-5.79999	48.7
							CHANNELS 3  Xrotation Yrotation Zrotation
							JOINT right_elbow
							{
								OFFSET	291.4	-30.8	15.2
								CHANNELS 3  Xrotation Yrotation Zrotation
								JOINT right_lowarm_twist
								{
									OFFSET	110.7	-3.89999	13.6
									CHANNELS 3  Xrotation Yrotation Zrotation
									JOINT right_hand
									{
										OFFSET	110.7	-3.89999	13.6
										CHANNELS 3  Xrotation Yrotation Zrotation
										JOINT right_ee
										{
											OFFSET	80.8	-5.10001	12.1
											CHANNELS 3  Xrotation Yrotation Zrotation
											End Site
											{
												OFFSET	1	0	0
											}
										}
									}
								}
							}
						}
					}
				}
			}
		}
	}
	JOINT left_hip
	{
		OFFSET	-82.8	-127.5	0.300001
		CHANNELS 3  Xrotation Yrotation Zrotation
		JOINT left_knee
		{
			OFFSET	-28.2	-396.7	2.2
			CHANNELS 3  Xrotation Yrotation Zrotation
			JOINT left_ankle
			{
				OFFSET	-11.7	-411.3	35.4
				CHANNELS 3  Xrotation Yrotation Zrotation
				JOINT left_toes
				{
					OFFSET	0	-60	-88.6
					CHANNELS 3  Xrotation Yrotation Zrotation
					JOINT left_foot_ee
					{
						OFFSET	-22.5	-16.5	-42.2
						CHANNELS 3  Xrotation Yrotation Zrotation
						End Site
						{
							OFFSET	1	0	0
						}
					}
				}
			}
		}
	}
	JOINT right_hip
	{
		OFFSET	82.8	-127.5	0.300001
		CHANNELS 3  Xrotation Yrotation Zrotation
		JOINT right_knee
		{
			OFFSET	28.2	-396.7	2.2
			CHANNELS 3  Xrotation Yrotation Zrotation
			JOINT right_ankle
			{
				OFFSET	11.7	-411.3	35.4
				CHANNELS 3  Xrotation Yrotation Zrotation
				JOINT right_toes
				{
					OFFSET	0	-60	-88.6
					CHANNELS 3  Xrotation Yrotation Zrotation
					JOINT right_foot_ee
					{
						OFFSET	22.5	-16.5	-42.2
						CHANNELS 3  Xrotation Yrotation Zrotation
						End Site
						{
							OFFSET	1	0	0
						}
					}
				}
			}
		}
	}
}
MOTION
Frames: 11
Frame Time: 0.02
4148.36 669.768 -451.468 -4.45754 44.9915 -8.10738 2.4946 0.607671 2.24366 2.49728 0.463707 2.27776 2.51541 0.0768251 2.32319 2.50815 0.442669 2.28194 -10.5218 5.08416 2.62905 -10.5266 7.8357 3.85902 -0.0 0.0 -0.0 5.852 6.14 11.377 16.5023 50.6828 58.158 0.282958 -7.9793 0.0197351 54.8342 -1.33621 -6.6115 -3.16541 -23.1584 -31.9405 -0.0 0.0 -0.0 14.1048 26.9255 -28.1303 -16.6352 -4.37588 -67.8617 0.459489 12.8232 -0.0516346 -18.5606 1.00969 -2.13743 -2.95426 25.5386 31.1953 0.0 0.0 0.0 -1.09401 4.47935 4.25532 -2.53631 0.0960887 0.377348 17.4189 27.9421 -2.5696 -6.80427 0.0 0.0 -0.0 0.0 -0.0 0.585787 16.1772 17.1795 0.797225 0.0336482 0.11771 39.7802 -2.61679 4.84286 -40.1117 0.0 0.0 0.0 0.0 0.0 
4154.34 669.334 -453.608 -4.32791 44.7036 -8.27922 2.48838 0.664182 2.25294 2.49105 0.519515 2.29061 2.51155 0.129592 2.34518 2.50422 0.498244 2.29533 -10.8628 5.92689 4.52624 -10.8348 8.19832 5.93409 -0.0 0.0 -0.0 5.30132 6.62745 10.3651 16.8082 52.2316 58.7779 0.358511 -10.0707 0.0315886 57.466 -1.5536 -6.86931 -2.59815 -21.7282 -27.1991 -0.0 0.0 -0.0 13.8606 26.4364 -27.6227 -16.8562 -3.73726 -68.4648 0.458878 12.8068 -0.051499 -20.2958 1.1385 -2.3185 -3.31556 25.6897 33.9551 0.0 0.0 0.0 -0.803036 3.87495 3.343 -1.68732 0.0657881 0.250577 19.1986 27.3102 -2.80123 -6.26827 0.0 0.0 -0.0 0.0 -0.0 0.821788 16.2523 16.8189 1.08998 0.0464164 0.160819 39.185 -1.69936 4.79477 -40.0673 0.0 0.0 0.0 0.0 0.0 
4159.14 664.688 -457.692 -4.75425 45.4121 -7.86307 2.48581 0.67541 2.17618 2.48829 0.535601 2.21472 2.50875 0.15803 2.27305 2.50191 0.514943 2.21961 -12.6324 6.62398 4.38922 -12.6362 9.81 6.12787 -0.0 0.0 -0.0 4.54685 10.5891 9.05658 14.3954 50.3365 62.0114 0.500441 -13.9233 0.061107 59.2815 -1.71038 -7.04125 -2.08196 -19.6965 -22.6869 -0.0 0.0 -0.0 13.7061 26.9816 -27.1931 -14.5744 -4.24943 -70.36 0.388881 10.9041 -0.0371167 -22.0825 1.27682 -2.50082 -3.66836 25.0512 36.4638 0.0 0.0 0.0 -0.493051 3.4245 2.96085 -1.0747 0.0427571 0.159383 23.8385 25.8017 -3.37888 -5.89854 0.0 0.0 -0.0 0.0 -0.0 0.943845 15.8636 16.1858 1.29522 0.0554986 0.191003 40.0967 -0.904373 4.87823 -40.1434 0.0 0.0 0.0 0.0 0.0 
4158.92 660.901 -466.457 -4.80259 45.4935 -7.30173 2.55164 0.475145 2.10615 2.55404 0.340194 2.1321 2.56634 -0.0187967 2.15897 2.55998 0.32233 2.13487 -12.5359 8.36204 3.58806 -12.6107 13.6146 5.87069 -0.0 0.0 -0.0 4.21439 10.4684 8.47852 16.9569 52.4463 60.8142 0.566038 -15.6636 0.0778581 61.5568 -1.91447 -7.24965 -1.4878 -19.4967 -18.4236 -0.0 0.0 -0.0 13.1981 26.8555 -26.0311 -12.8447 -2.75934 -72.0559 0.287602 8.10853 -0.0203849 -23.6512 1.40293 -2.65732 -3.87777 25.0268 38.1115 0.0 0.0 0.0 -0.363865 3.09148 3.04316 0.439452 -0.0183449 -0.0649417 27.8675 26.7969 -3.89988 -5.27722 0.0 0.0 -0.0 0.0 -0.0 0.612565 15.5978 15.1527 1.7568 0.0763208 0.258767 40.1747 -0.334973 4.88855 -39.2463 0.0 0.0 0.0 0.0 0.0 
4162.82 652.403 -472.389 -4.5719 46.3197 -7.22793 2.26081 0.369587 2.24534 2.26358 0.225998 2.2643 2.27227 -0.165124 2.26955 2.26513 0.195286 2.26715 -12.5501 9.70168 3.41639 -12.6778 16.2748 6.11184 -0.0 0.0 -0.0 3.18466 11.8895 6.75959 16.7596 52.9379 62.7566 0.607188 -16.7405 0.0893406 63.8299 -2.1265 -7.44965 -0.802808 -18.5467 -13.3198 -0.0 0.0 -0.0 12.7281 26.8273 -24.9512 -11.2735 -2.29739 -72.8353 0.246862 6.97216 -0.0150386 -24.8714 1.50397 -2.77665 -3.96641 25.8351 39.0812 0.0 0.0 0.0 -0.775427 2.82281 2.07305 2.97192 -0.133743 -0.436351 32.1324 27.4989 -4.41996 -5.00381 0.0 0.0 -0.0 0.0 -0.0 0.665885 15.537 14.5188 2.44297 0.108283 0.359194 39.9029 0.0235362 4.86776 -38.4653 0.0 0.0 0.0 0.0 0.0 
4166.68 656.148 -470.179 -4.74334 47.0606 -6.94138 2.12786 0.306079 2.37716 2.13099 0.154238 2.39181 2.13721 -0.263356 2.38227 2.12931 0.116072 2.39396 -10.8687 10.467 3.08291 -10.9775 17.7464 5.76378 -0.0 0.0 -0.0 2.75002 13.4121 6.1012 16.3475 53.3512 64.7004 0.637697 -17.5312 0.09833 65.6222 -2.29921 -7.60137 -0.183487 -17.9742 -8.88455 -0.0 0.0 -0.0 12.5287 26.9718 -24.4759 -9.97034 -1.96241 -73.7107 0.219783 6.2137 -0.0119294 -25.81 1.58342 -2.86697 -3.98796 26.4302 39.4397 0.0 0.0 0.0 -0.868619 2.68793 1.17018 4.74497 -0.224275 -0.693247 34.9973 26.5862 -4.70905 -4.57732 0.0 0.0 -0.0 0.0 -0.0 0.802734 15.5004 14.3771 2.89653 0.130071 0.425369 39.6798 -0.122736 4.84742 -37.9466 0.0 0.0 0.0 0.0 0.0 
4171.35 654.856 -475.713 -5.00178 47.7134 -6.63788 1.98014 0.262764 2.41779 1.98338 0.108428 2.4296 1.98786 -0.321366 2.4107 1.97976 0.0632756 2.43119 -9.39128 10.3554 2.52368 -9.45913 17.7336 4.97059 -0.0 0.0 -0.0 2.90449 14.9043 6.41976 17.2652 53.1958 64.013 0.659315 -18.0874 0.104942 67.6981 -2.50508 -7.77028 0.30711 -16.281 -4.866 -0.0 0.0 -0.0 12.488 27.4393 -24.3249 -8.85708 -1.76789 -73.424 0.200702 5.67794 -0.00995284 -26.6373 1.65467 -2.94551 -3.99358 27.1583 39.7056 0.0 0.0 0.0 -0.880171 2.61735 0.768475 5.89076 -0.287001 -0.85775 36.9873 26.2182 -4.90715 -3.88142 0.0 0.0 -0.0 0.0 -0.0 0.744137 15.4432 13.7475 3.21866 0.145864 0.472265 40.0037 -0.176014 4.87499 -37.6323 0.0 0.0 0.0 0.0 0.0 
4176.43 656.938 -479.26 -4.67256 47.6 -6.52253 1.79174 0.389647 2.40877 1.79493 0.235627 2.42867 1.80505 -0.203645 2.43156 1.79685 0.182813 2.43321 -8.16896 10.2228 2.22815 -8.19907 17.5433 4.47039 -0.0 0.0 -0.0 2.82129 16.3168 6.3449 18.1744 53.0319 63.0653 0.667381 -18.294 0.10746 69.9198 -2.73205 -7.94271 0.426033 -12.6816 -2.52133 -0.0 0.0 -0.0 12.4163 27.2579 -24.1834 -8.97655 -1.29481 -74.3557 0.193568 5.47736 -0.00925939 -26.9142 1.67877 -2.97157 -4.09206 27.0732 40.4738 0.0 0.0 0.0 0.241389 2.20574 1.05733 4.25423 -0.19842 -0.62242 39.5379 24.837 -5.11808 -2.44394 0.0 0.0 -0.0 0.0 -0.0 0.710801 15.4015 12.8859 3.43975 0.156856 0.5044 40.0505 -1.01868 4.87359 -37.406 0.0 0.0 0.0 0.0 0.0 
4174.47 658.959 -483.891 -5.03023 47.427 -6.24626 1.70899 0.479256 2.42799 1.71221 0.323833 2.45355 1.72634 -0.124649 2.47168 1.71792 0.26715 2.46036 -6.79009 9.66303 2.08435 -6.7783 16.4359 4.01876 -0.0 0.0 -0.0 2.90973 17.3112 6.52152 18.2182 53.3196 62.8416 0.660002 -18.105 0.105155 72.5835 -3.01276 -8.1377 0.327703 -8.27068 -1.29875 -0.0 0.0 -0.0 12.4118 27.4992 -24.1431 -9.04127 -1.36443 -74.9316 0.188593 5.3374 -0.00879052 -26.9604 1.6828 -2.97591 -4.24251 26.575 41.5549 0.0 0.0 0.0 0.0644473 1.80455 0.118404 4.10119 -0.190482 -0.600288 39.333 24.9392 -5.10143 -1.20854 0.0 0.0 -0.0 0.0 -0.0 0.881611 15.3504 12.7118 3.2335 0.146598 0.474422 40.1629 -2.65971 4.87571 -36.947 0.0 0.0 0.0 0.0 0.0 
4177.64 659.837 -483.739 -5.38281 47.406 -5.48684 1.66114 0.537189 2.4126 1.6643 0.382627 2.44187 1.68096 -0.0666158 2.47075 1.67258 0.32431 2.4503 -5.63575 9.12637 1.59501 -5.59891 15.6651 3.27915 -0.0 0.0 -0.0 2.10431 20.9396 5.47294 19.615 49.9705 62.987 0.532181 -14.7689 0.0689718 75.6155 -3.34293 -8.34355 0.00752131 -1.96149 -0.778219 -0.0 0.0 -0.0 12.3093 27.9671 -23.8496 -8.83437 -2.03771 -74.5907 0.201588 5.70282 -0.0100406 -27.0286 1.68876 -2.9823 -4.19366 26.377 41.0935 0.0 0.0 0.0 0.674238 1.61703 0.0443126 0.630887 -0.0264923 -0.0931883 41.3637 25.3471 -5.30879 0.677007 -0.0 -0.0 -0.0 0.0 -0.0 1.76483 14.6444 11.9081 3.08733 0.139393 0.453156 40.5676 -6.03246 4.90753 -36.755 0.0 0.0 0.0 0.0 0.0 
4178.01 660.325 -484.821 -5.76712 47.3552 -4.68911 1.61979 0.575075 2.39217 1.62287 0.421736 2.42389 1.64113 -0.0265661 2.46014 1.63286 0.362183 2.43349 -4.92136 8.54314 1.43099 -4.87429 14.633 2.92637 -0.0 0.0 -0.0 1.71529 23.9685 5.09339 19.3276 48.0423 64.8394 0.486322 -13.5452 0.057755 78.4187 -3.65747 -8.51813 -0.297209 3.75372 -0.387768 -0.0 0.0 -0.0 12.2866 28.2737 -23.7584 -8.48274 -2.79618 -74.3478 0.213024 6.02405 -0.011209 -27.2554 1.70864 -3.00352 -4.11611 25.9177 40.3183 0.0 0.0 0.0 1.28322 1.503 0.0916486 -1.84209 0.0714522 0.273655 41.7705 25.7403 -5.36045 2.41199 -0.0 -0.0 -0.0 0.0 -0.0 2.36024 14.1373 11.1199 2.97943 0.13411 0.437446 40.7252 -8.90367 4.93208 -36.4477 0.0 0.0 0.0 0.0 0.0 
